<svg width="446" height="169" viewBox="0 0 446 169" fill="none" xmlns="http://www.w3.org/2000/svg">
<path d="M88.5 86.25L88.25 72.25L197.25 165H149.25L52.25 80L138.5 3.25H185.75L88.5 86.25ZM19.25 3.25H52.5V165H19.25V3.25ZM294.379 168.25C279.379 168.25 265.796 166.5 253.629 163C241.629 159.5 231.212 154.25 222.379 147.25C213.712 140.25 207.046 131.583 202.379 121.25C197.712 110.917 195.379 99 195.379 85.5C195.379 71.8333 197.796 59.75 202.629 49.25C207.629 38.5833 214.629 29.5833 223.629 22.25C232.796 14.9167 243.629 9.41666 256.129 5.74999C268.796 1.91666 282.796 -6.55651e-06 298.129 -6.55651e-06C316.296 -6.55651e-06 331.962 2.58333 345.129 7.75C358.296 12.75 368.629 19.8333 376.129 29C383.796 38.1667 388.129 49.0833 389.129 61.75H357.129C354.962 55.0833 351.379 49.3333 346.379 44.5C341.546 39.5 335.129 35.6667 327.129 33C319.129 30.1667 309.462 28.75 298.129 28.75C283.629 28.75 271.212 31.0833 260.879 35.75C250.712 40.4167 242.962 47 237.629 55.5C232.296 64 229.629 74 229.629 85.5C229.629 96.6667 231.962 106.333 236.629 114.5C241.296 122.5 248.462 128.667 258.129 133C267.962 137.333 280.462 139.5 295.629 139.5C307.296 139.5 317.546 138 326.379 135C335.379 131.833 342.879 127.667 348.879 122.5C354.879 117.167 359.129 111.25 361.629 104.75L374.629 100C372.462 121.5 364.296 138.25 350.129 150.25C336.129 162.25 317.546 168.25 294.379 168.25ZM366.129 165C366.129 159.833 366.462 153.917 367.129 147.25C367.796 140.417 368.629 133.583 369.629 126.75C370.629 119.75 371.546 113.333 372.379 107.5H298.379V86.25H394.879V165H366.129Z" fill="#F0EBE1"/>
<rect x="411" y="141" width="35" height="25" fill="#C8FF00"/>
</svg>
